<svg width="25" height="24" viewBox="0 0 25 24" fill="none" xmlns="http://www.w3.org/2000/svg">
<path d="M17.4415 6.45337H22.4764V8.38217H20.4624V20.9194C20.4624 21.452 20.0116 21.8838 19.4555 21.8838H5.35773C4.8016 21.8838 4.35075 21.452 4.35075 20.9194V8.38217H2.33679V6.45337H7.3717V3.56017C7.3717 3.02755 7.82254 2.59577 8.37868 2.59577H16.4345C16.9907 2.59577 17.4415 3.02755 17.4415 3.56017V6.45337ZM18.4485 8.38217H6.36472V19.955H18.4485V8.38217ZM9.38566 11.2754H11.3996V17.0618H9.38566V11.2754ZM13.4136 11.2754H15.4275V17.0618H13.4136V11.2754ZM9.38566 4.52457V6.45337H15.4275V4.52457H9.38566Z" fill="white"/>
</svg>
