<svg width="25" height="25" viewBox="0 0 25 25" fill="none" xmlns="http://www.w3.org/2000/svg">
<g clip-path="url(#clip0_1_174)">
<path d="M17.0803 3.94533L15.0803 5.94533H5.32288V19.9453H19.3229V10.188L21.3229 8.18798V20.9453C21.3229 21.4976 20.8752 21.9453 20.3229 21.9453H4.32288C3.7706 21.9453 3.32288 21.4976 3.32288 20.9453V4.94533C3.32288 4.39305 3.7706 3.94533 4.32288 3.94533H17.0803ZM20.8082 3.04584L22.2224 4.46005L13.03 13.6524L11.6183 13.6549L11.6158 12.2382L20.8082 3.04584Z" fill="white"/>
</g>
<defs>
<clipPath id="clip0_1_174">
<path d="M0.322876 10.9485C0.322876 5.4257 4.80003 0.948547 10.3229 0.948547H24.4904V24.0942H6.32288C3.00917 24.0942 0.322876 21.4079 0.322876 18.0942V10.9485Z" fill="white"/>
</clipPath>
</defs>
</svg>
